<svg width="40" height="40" viewBox="0 0 40 40" fill="none" xmlns="http://www.w3.org/2000/svg">
<g clip-path="url(#clip0)">
<path d="M9.46652 37.1856C9.57215 37.2674 9.69886 37.3083 9.82551 37.3083C9.95215 37.3083 10.0788 37.2674 10.1845 37.1856C10.2564 37.1299 11.2366 36.3655 12.5431 35.0881C14.5214 35.4916 15.5851 36.2683 15.5851 36.8275C15.5851 37.2451 15.0128 37.7377 14.0915 38.1131C12.9614 38.5737 11.4464 38.8273 9.82527 38.8273C6.30917 38.8273 4.06542 37.6428 4.06542 36.8275C4.06542 36.2676 5.12948 35.4912 7.10886 35.0877C8.42261 36.3727 9.40418 37.1373 9.46652 37.1856Z" fill="#054C33"/>
<path fill-rule="evenodd" clip-rule="evenodd" d="M9.82551 12.0239C4.41768 12.0239 0.0180664 16.4235 0.0180664 21.8314C0.0180664 25.189 1.61526 28.799 4.76534 32.5612C5.23339 33.1201 5.6998 33.6381 6.14738 34.1107C4.11346 34.6658 2.89229 35.6633 2.89229 36.8274C2.89229 38.8883 6.46433 40.0003 9.82519 40.0003C13.1861 40.0003 16.7581 38.8882 16.7581 36.8274C16.7581 35.6642 15.5373 34.6665 13.5047 34.1112C14.3168 33.2539 15.1905 32.2453 16.0196 31.1203C16.7124 30.2267 17.2035 29.4043 17.3624 29.1048C18.869 26.5717 19.6329 24.1247 19.6329 21.8315C19.6329 16.4235 15.2333 12.0239 9.82551 12.0239ZM12.0454 33.9248C12.9908 32.9765 14.0743 31.7828 15.0752 30.4244C15.3464 30.0601 15.9818 29.1662 16.3541 28.5051C17.7513 26.156 18.4597 23.9107 18.4597 21.8315C18.4597 17.0706 14.5864 13.1972 9.82543 13.1972C5.06448 13.1972 1.19112 17.0706 1.19112 21.8315C1.19112 26.6198 4.93722 31.2367 7.59402 33.909C7.72261 33.9665 7.828 34.0696 7.888 34.2011C8.72402 35.0225 9.42582 35.6316 9.82574 35.9656C10.2301 35.6283 10.9428 35.0108 11.7897 34.1786C11.8464 34.0679 11.9371 33.9801 12.0454 33.9248ZM9.82551 37.3083C9.69886 37.3083 9.57215 37.2674 9.46652 37.1856C9.40418 37.1373 8.42261 36.3727 7.10886 35.0877C5.12948 35.4912 4.06542 36.2676 4.06542 36.8275C4.06542 37.6428 6.30917 38.8273 9.82527 38.8273C11.4464 38.8273 12.9614 38.5737 14.0915 38.1131C15.0128 37.7377 15.5851 37.2451 15.5851 36.8275C15.5851 36.2683 14.5214 35.4916 12.5431 35.0881C11.2366 36.3655 10.2564 37.1299 10.1845 37.1856C10.0788 37.2674 9.95215 37.3083 9.82551 37.3083Z" fill="#054C33"/>
<path d="M9.82567 17.5669C8.89794 17.5669 8.01575 17.8598 7.2745 18.4139C7.01512 18.6079 6.962 18.9755 7.1559 19.2349C7.34996 19.4943 7.71754 19.5474 7.97692 19.3535C8.51372 18.9522 9.15302 18.74 9.82559 18.74C11.5301 18.74 12.9167 20.1267 12.9167 21.8312C12.9167 23.5357 11.5301 24.9223 9.82559 24.9223C8.12114 24.9223 6.73449 23.5356 6.73449 21.8312C6.73449 21.5403 6.77473 21.2528 6.85403 20.9767C6.9434 20.6653 6.76348 20.3405 6.45215 20.251C6.1409 20.162 5.81598 20.3417 5.72652 20.653C5.61707 21.0345 5.56152 21.4308 5.56152 21.8312C5.56152 24.1825 7.47442 26.0954 9.82575 26.0954C12.177 26.0954 14.09 24.1825 14.09 21.8312C14.0899 19.4799 12.1769 17.5669 9.82567 17.5669Z" fill="#054C33"/>
<path d="M32.3081 20.6002C29.5316 20.6002 28.017 19.6746 28.017 19.1989C28.017 18.8891 28.7059 18.3221 30.1772 18.0093C31.1671 18.9725 31.9019 19.5448 31.9493 19.5816C32.055 19.6634 32.1817 19.7043 32.3083 19.7043C32.4349 19.7043 32.5615 19.6634 32.6673 19.5816C32.7147 19.545 33.4493 18.9725 34.4392 18.0094C35.0947 18.1492 35.6625 18.3539 36.0599 18.5958C36.3976 18.8016 36.5992 19.0271 36.5992 19.1989C36.5991 19.6746 35.0845 20.6002 32.3081 20.6002Z" fill="#054C33"/>
<path fill-rule="evenodd" clip-rule="evenodd" d="M35.3872 17.0407C35.6857 16.7205 35.9931 16.3755 36.3014 16.0072C38.7434 13.0906 39.9816 10.2867 39.9816 7.67337C39.9816 3.44235 36.5393 0 32.3082 0C29.2174 0 26.4421 1.83953 25.2381 4.68642C24.6348 6 24.6348 7.67345 24.6348 7.67345C24.6348 10.2867 25.873 13.0906 28.3151 16.0073C28.6233 16.3753 28.9305 16.7202 29.2288 17.0403C27.7167 17.4946 26.8438 18.2679 26.8438 19.1991C26.8438 19.9844 27.4809 20.6765 28.6377 21.1479C29.6276 21.5512 30.9311 21.7734 32.3081 21.7734C33.6851 21.7734 34.9886 21.5512 35.9785 21.1479C37.1352 20.6764 37.7722 19.9843 37.7722 19.199C37.7721 18.2696 36.8986 17.4956 35.3872 17.0407ZM32.3082 1.17305C29.6897 1.17305 27.3386 2.73157 26.3184 5.14345C26.1483 5.61116 25.8079 6.77195 25.8079 7.67345C25.8079 11.2994 28.647 14.8046 30.6722 16.8438C30.7833 16.8995 30.8758 16.9895 30.9331 17.103C31.5072 17.6658 31.9969 18.0961 32.308 18.359C33.7196 17.1644 38.8085 12.5206 38.8085 7.67345C38.8085 4.08915 35.8925 1.17305 32.3082 1.17305ZM28.017 19.1989C28.017 19.6746 29.5316 20.6002 32.3081 20.6002C35.0845 20.6002 36.5991 19.6746 36.5992 19.1989C36.5992 19.0271 36.3976 18.8016 36.0599 18.5958C35.6625 18.3539 35.0947 18.1492 34.4392 18.0094C33.4493 18.9725 32.7147 19.545 32.6673 19.5816C32.5615 19.6634 32.4349 19.7043 32.3083 19.7043C32.1817 19.7043 32.055 19.6634 31.9493 19.5816C31.9019 19.5448 31.1671 18.9725 30.1772 18.0093C28.7059 18.3221 28.017 18.8891 28.017 19.1989Z" fill="#054C33"/>
<path d="M32.3086 4.26025C30.4267 4.26025 28.8955 5.79135 28.8955 7.67346C28.8955 9.55542 30.4266 11.0865 32.3086 11.0865C34.1907 11.0865 35.7218 9.5555 35.7218 7.67346C35.7218 5.79143 34.1907 4.26025 32.3086 4.26025ZM32.3087 9.91339C31.0734 9.91339 30.0686 8.90854 30.0686 7.67339C30.0686 6.43823 31.0735 5.4333 32.3087 5.4333C33.5439 5.4333 34.5488 6.43815 34.5488 7.67339C34.5487 8.90854 33.5439 9.91339 32.3087 9.91339Z" fill="#054C33"/>
<path d="M24.6996 18.6128H24.4317C24.2367 18.6128 24.0408 18.6257 23.8491 18.6512C23.5281 18.694 23.3024 18.9888 23.345 19.3101C23.3843 19.605 23.6362 19.8194 23.9257 19.8194C23.9515 19.8194 23.9776 19.8177 24.0038 19.8142C24.1444 19.7955 24.2884 19.7861 24.4318 19.7861H24.6996V19.786C25.0235 19.786 25.2861 19.5235 25.2861 19.1994C25.2861 18.8754 25.0235 18.6128 24.6996 18.6128Z" fill="#054C33"/>
<path d="M22.7603 36.2104C22.7593 36.2104 22.7585 36.2104 22.7575 36.2104L21.9828 36.214C21.6589 36.2154 21.3975 36.4793 21.3989 36.8032C21.4003 37.1262 21.6628 37.3871 21.9854 37.3871C21.9864 37.3871 21.9872 37.3871 21.9881 37.3871L22.7628 37.3836C23.0867 37.3821 23.3481 37.1183 23.3467 36.7944C23.3453 36.4712 23.083 36.2104 22.7603 36.2104Z" fill="#054C33"/>
<path d="M25.3959 26.21H24.6212C24.2972 26.21 24.0347 26.4726 24.0347 26.7965C24.0347 27.1205 24.2972 27.3831 24.6212 27.3831H25.3959C25.7199 27.3831 25.9825 27.1206 25.9825 26.7965C25.9825 26.4726 25.72 26.21 25.3959 26.21Z" fill="#054C33"/>
<path d="M22.288 19.8079C22.0684 19.5699 21.6975 19.5549 21.4592 19.7745C21.2405 19.9761 21.0416 20.2009 20.868 20.4426C20.679 20.7058 20.7392 21.0723 21.0023 21.2613C21.1058 21.3357 21.2255 21.3715 21.344 21.3715C21.5264 21.3715 21.7063 21.2865 21.8209 21.127C21.9482 20.9497 22.0942 20.7847 22.2546 20.6367C22.4927 20.4171 22.5076 20.046 22.288 19.8079Z" fill="#054C33"/>
<path d="M25.8593 36.1963C25.8584 36.1963 25.8575 36.1963 25.8566 36.1963L25.082 36.1998C24.7581 36.2012 24.4966 36.4651 24.4981 36.789C24.4995 37.1121 24.7619 37.3729 25.0845 37.3729C25.0855 37.3729 25.0863 37.3729 25.0873 37.3729L25.8619 37.3694C26.1858 37.368 26.4472 37.1041 26.4458 36.7802C26.4443 36.4571 26.182 36.1963 25.8593 36.1963Z" fill="#054C33"/>
<path d="M19.6616 36.2251C19.6607 36.2251 19.6599 36.2251 19.6589 36.2251L18.8842 36.2286C18.5603 36.2301 18.2989 36.4939 18.3003 36.8178C18.3018 37.1409 18.564 37.4017 18.8868 37.4017C18.8877 37.4017 18.8886 37.4017 18.8895 37.4017L19.6642 37.3982C19.9881 37.3967 20.2496 37.1329 20.2481 36.809C20.2467 36.4859 19.9844 36.2251 19.6616 36.2251Z" fill="#054C33"/>
<path d="M22.7212 25.7165C22.5369 25.6003 22.3635 25.4645 22.2061 25.3132C21.9726 25.0886 21.6012 25.096 21.3767 25.3293C21.1521 25.5627 21.1594 25.934 21.3928 26.1586C21.6075 26.365 21.8438 26.5501 22.0952 26.7087C22.1924 26.77 22.3006 26.7993 22.4077 26.7993C22.6024 26.7993 22.7927 26.7025 22.9044 26.5255C23.0773 26.2516 22.9952 25.8894 22.7212 25.7165Z" fill="#054C33"/>
<path d="M21.2789 23.6163C21.2395 23.4141 21.2195 23.2061 21.2195 22.998L21.2197 22.9654C21.2235 22.6415 20.964 22.3759 20.64 22.3721C20.6377 22.3721 20.6354 22.3721 20.633 22.3721C20.3122 22.3721 20.0504 22.6302 20.0466 22.9518L20.0464 22.9981C20.0464 23.2814 20.0737 23.5649 20.1274 23.8407C20.1819 24.1208 20.4274 24.3151 20.7025 24.3151C20.7396 24.3151 20.7774 24.3116 20.8152 24.3042C21.1333 24.2422 21.3408 23.9343 21.2789 23.6163Z" fill="#054C33"/>
<path d="M28.4946 26.21H27.7199C27.3959 26.21 27.1333 26.4726 27.1333 26.7965C27.1333 27.1205 27.3959 27.3831 27.7199 27.3831H28.4946C28.8185 27.3831 29.0811 27.1206 29.0811 26.7965C29.0811 26.4726 28.8185 26.21 28.4946 26.21Z" fill="#054C33"/>
<path d="M37.912 27.4047C37.686 27.2264 37.4444 27.0643 37.1939 26.9233C36.9119 26.7643 36.554 26.8642 36.395 27.1464C36.236 27.4286 36.3358 27.7864 36.6181 27.9453C36.8157 28.0568 37.0065 28.1846 37.1849 28.3255C37.2927 28.4106 37.4206 28.4517 37.548 28.4517C37.7213 28.4517 37.893 28.3752 38.0088 28.2286C38.2095 27.9743 38.1663 27.6054 37.912 27.4047Z" fill="#054C33"/>
<path d="M35.7352 36.6168C35.6907 36.2959 35.3941 36.0713 35.0739 36.116C34.8818 36.1426 34.6851 36.1566 34.4889 36.1573L34.3792 36.1579C34.0552 36.1595 33.7939 36.4234 33.7954 36.7473C33.7971 37.0702 34.0593 37.331 34.3819 37.331C34.3829 37.331 34.3838 37.331 34.3848 37.331L34.4943 37.3305C34.742 37.3294 34.9911 37.3118 35.2345 37.2781C35.5555 37.2338 35.7796 36.9376 35.7352 36.6168Z" fill="#054C33"/>
<path d="M38.3236 34.9672C38.1 34.7325 37.7287 34.7236 37.4943 34.9471C37.3297 35.1039 37.1516 35.249 36.9648 35.3786C36.6986 35.5631 36.6324 35.9286 36.8169 36.1949C36.9309 36.3592 37.1136 36.4473 37.2995 36.4473C37.4148 36.4473 37.5312 36.4134 37.6332 36.3428C37.8696 36.1788 38.0951 35.9951 38.3035 35.7965C38.5381 35.573 38.547 35.2017 38.3236 34.9672Z" fill="#054C33"/>
<path d="M39.4651 32.1191C39.1472 32.0592 38.8402 32.2686 38.7802 32.5869C38.7381 32.8101 38.6783 33.0316 38.6021 33.2454C38.4933 33.5504 38.6525 33.886 38.9576 33.9948C39.0227 34.018 39.0893 34.029 39.1547 34.029C39.3956 34.029 39.6215 33.8794 39.7072 33.6394C39.8038 33.3683 39.8798 33.0872 39.9332 32.804C39.9929 32.4857 39.7834 32.179 39.4651 32.1191Z" fill="#054C33"/>
<path d="M39.8135 30.2335C39.7339 29.9565 39.6319 29.6837 39.5099 29.4222C39.3728 29.1286 39.0241 29.0017 38.7303 29.1386C38.4367 29.2756 38.3098 29.6246 38.4467 29.9182C38.5428 30.1241 38.6233 30.3391 38.6859 30.557C38.7597 30.8143 38.9944 30.982 39.2494 30.982C39.3031 30.982 39.3575 30.9745 39.4115 30.9591C39.7229 30.8696 39.9028 30.5448 39.8135 30.2335Z" fill="#054C33"/>
<path d="M31.5937 26.21H30.819C30.495 26.21 30.2324 26.4726 30.2324 26.7965C30.2324 27.1205 30.4949 27.3831 30.819 27.3831H31.5937C31.9177 27.3831 32.1802 27.1206 32.1802 26.7965C32.1802 26.4726 31.9177 26.21 31.5937 26.21Z" fill="#054C33"/>
<path d="M28.9585 36.1826C28.9576 36.1826 28.9567 36.1826 28.9558 36.1826L28.1811 36.1861C27.8572 36.1875 27.5958 36.4514 27.5972 36.7754C27.5987 37.0984 27.861 37.3593 28.1837 37.3593C28.1846 37.3593 28.1855 37.3593 28.1864 37.3593L28.9611 37.3557C29.285 37.3543 29.5464 37.0904 29.545 36.7665C29.5436 36.4435 29.2812 36.1826 28.9585 36.1826Z" fill="#054C33"/>
<path d="M34.7182 26.2155C34.6352 26.2118 34.5511 26.21 34.4685 26.21H33.9176C33.5936 26.21 33.3311 26.4726 33.3311 26.7965C33.3311 27.1205 33.5936 27.3831 33.9176 27.3831H34.4685V27.383C34.5348 27.383 34.6007 27.3845 34.6663 27.3874C34.6751 27.3879 34.684 27.388 34.6927 27.388C35.0047 27.388 35.2643 27.1422 35.2782 26.8275C35.2925 26.5037 35.0418 26.2298 34.7182 26.2155Z" fill="#054C33"/>
<path d="M32.0576 36.1685C32.0567 36.1685 32.0558 36.1685 32.0549 36.1685L31.2802 36.172C30.9563 36.1734 30.6949 36.4373 30.6963 36.7612C30.6978 37.0842 30.9601 37.3451 31.2828 37.3451C31.2837 37.3451 31.2847 37.3451 31.2855 37.3451L32.0602 37.3416C32.3841 37.3401 32.6455 37.0763 32.6441 36.7524C32.6427 36.4292 32.3804 36.1685 32.0576 36.1685Z" fill="#054C33"/>
</g>
<defs>
<clipPath id="clip0">
<rect width="40" height="40" fill="white"/>
</clipPath>
</defs>
</svg>
