<svg width="37" height="37" viewBox="0 0 37 37" fill="none" xmlns="http://www.w3.org/2000/svg">
<path d="M0.5 18.7886C0.5 9.12359 8.33502 1.28857 18 1.28857H19C28.665 1.28857 36.5 9.12359 36.5 18.7886C36.5 28.4536 28.665 36.2886 19 36.2886H18C8.33502 36.2886 0.5 28.4536 0.5 18.7886Z" stroke="white"/>
<path d="M19.8412 26.7886V18.5782H22.4941L22.8929 15.378H19.8412V13.3345C19.8412 12.4086 20.0901 11.7775 21.367 11.7775H23V8.91369C22.7189 8.87477 21.7499 8.78857 20.6228 8.78857C18.2698 8.78857 16.6609 10.2788 16.6609 13.0175V15.378H14V18.5782H16.6609V26.7886H19.8412Z" fill="white"/>
</svg>
