<svg width="14" height="15" viewBox="0 0 14 15" fill="none" xmlns="http://www.w3.org/2000/svg">
<path d="M6.99984 12.7502C6.26305 12.1217 5.58011 11.4328 4.95817 10.6905C4.02484 9.57571 2.9165 7.91555 2.9165 6.33355C2.91568 4.68128 3.91065 3.19136 5.43713 2.55903C6.96361 1.9267 8.72071 2.2766 9.8885 3.44546C10.6564 4.20998 11.0866 5.24994 11.0832 6.33355C11.0832 7.91555 9.97484 9.57571 9.0415 10.6905C8.41956 11.4328 7.73663 12.1217 6.99984 12.7502ZM6.99984 4.58355C6.37462 4.58355 5.7969 4.91709 5.48429 5.45855C5.17169 6 5.17169 6.66709 5.48429 7.20855C5.7969 7.75 6.37462 8.08355 6.99984 8.08355C7.96634 8.08355 8.74984 7.30004 8.74984 6.33355C8.74984 5.36705 7.96634 4.58355 6.99984 4.58355Z" fill="white"/>
</svg>
