<svg width="14" height="16" viewBox="0 0 14 16" fill="none" xmlns="http://www.w3.org/2000/svg">
<path d="M11.082 13.6668C6.10525 13.6739 2.32818 9.85153 2.3335 4.91829C2.3335 4.59613 2.59467 4.3335 2.91684 4.3335H4.45646C4.74554 4.3335 4.99112 4.5459 5.03357 4.83185C5.13531 5.51719 5.33485 6.18439 5.62611 6.81307L5.68606 6.94246C5.7694 7.12236 5.71291 7.33611 5.55156 7.45134C5.07475 7.79184 4.89253 8.47724 5.26399 9.01204C5.73012 9.68315 6.31769 10.2706 6.98865 10.7365C7.52342 11.1079 8.20871 10.9257 8.54921 10.449C8.66451 10.2875 8.87838 10.231 9.05839 10.3144L9.18718 10.374C9.8159 10.6653 10.4832 10.8648 11.1686 10.9666C11.4545 11.009 11.6668 11.2546 11.6668 11.5436V13.0835C11.6668 13.4057 11.405 13.6668 11.0829 13.6668L11.082 13.6668Z" fill="white"/>
</svg>
