<svg width="73" height="67" viewBox="0 0 73 67" fill="none" xmlns="http://www.w3.org/2000/svg">
<rect width="67" height="67" rx="8" fill="#FBF0E9"/>
<path d="M29.5225 18.9375L42.9998 29.0449L56.4772 18.9375H29.5225Z" fill="#D5651C"/>
<path d="M26.5526 21.1035L20.9653 29.4844H37.7265L26.5526 21.1035Z" fill="#D5651C"/>
<path d="M44.7578 56.5009L64.9009 33H44.7578V56.5009Z" fill="#D5651C"/>
<path d="M41.2418 56.5009V33H21.0986L41.2418 56.5009Z" fill="#D5651C"/>
<path d="M48.2729 29.4844H65.0342L59.4469 21.1035L48.2729 29.4844Z" fill="#D5651C"/>
<path d="M69.4844 11.9062V8.39062H65.9688V11.9062H62.4531V15.4219H65.9688V18.9375H69.4844V15.4219H73V11.9062H69.4844Z" fill="#D5651C"/>
<path d="M20.0312 47.0625H16.5156V50.5781H13V54.0938H16.5156V57.6094H20.0312V54.0938H23.5469V50.5781H20.0312V47.0625Z" fill="#D5651C"/>
<path d="M13 36.5156H16.5156V40.0312H13V36.5156Z" fill="#D5651C"/>
<path d="M69.4844 25.9688H73V29.4844H69.4844V25.9688Z" fill="#D5651C"/>
</svg>
