<svg width="72" height="67" viewBox="0 0 72 67" fill="none" xmlns="http://www.w3.org/2000/svg">
<rect width="67" height="67" rx="8" fill="#FBF0E9"/>
<path d="M62.6616 23.9425L57.2961 23.936C53.7879 18.9547 48.1172 16 41.9999 16C35.8825 16 30.2098 18.9569 26.6993 23.9422H21.3384C16.1892 23.9424 12 28.1313 12 33.2803V36.1615C12 41.3077 16.1892 45.4943 21.3384 45.4943H26.699C30.207 50.4796 35.8799 53.4367 41.9999 53.4367C48.1111 53.4367 53.7789 50.485 57.29 45.5089L62.6616 45.4943C67.8109 45.4943 72 41.3054 72 36.1565V33.2753C72 28.1291 67.8108 23.9425 62.6616 23.9425ZM36.173 31.2427L33.2327 39.3736C33.1801 39.5182 33.0387 39.6161 32.888 39.6123L31.7941 39.5995C31.6401 39.5976 31.5042 39.4985 31.4552 39.3526L29.7285 34.2027L27.9933 39.3539C27.9444 39.4994 27.809 39.598 27.6554 39.6003L26.5632 39.6158C26.5615 39.6158 26.5599 39.6158 26.5581 39.6158C26.4065 39.6158 26.2712 39.5216 26.2185 39.3791L23.2177 31.2485C23.1844 31.1584 23.1883 31.0588 23.2284 30.9717C23.2685 30.8845 23.3418 30.8169 23.432 30.7836L24.5188 30.3825C24.7057 30.3131 24.9143 30.4093 24.9837 30.5969L27.0611 36.2257L28.8387 30.9479C28.8885 30.8005 29.0265 30.7015 29.1817 30.7015C29.182 30.7015 29.182 30.7015 29.182 30.7015L30.2801 30.7023C30.4356 30.7025 30.5736 30.802 30.6231 30.9492L32.3813 36.1932L34.403 30.6027C34.4356 30.5125 34.5028 30.4388 34.5897 30.3981C34.6768 30.3573 34.776 30.3528 34.8665 30.3855L35.9558 30.7795C36.1436 30.8471 36.2409 31.0548 36.173 31.2427ZM38.8086 38.9307C38.8086 39.1306 38.6466 39.2926 38.4466 39.2926H37.2883C37.0883 39.2926 36.9263 39.1306 36.9263 38.9307V33.6956C36.9263 33.4957 37.0883 33.3336 37.2883 33.3336H38.4466C38.6466 33.3336 38.8086 33.4957 38.8086 33.6956V38.9307ZM37.8675 32.377C37.2687 32.377 36.7818 31.8899 36.7818 31.2911C36.7818 30.6922 37.2687 30.2051 37.8675 30.2051C38.4665 30.2051 38.9534 30.6922 38.9534 31.2911C38.9534 31.8899 38.4665 32.377 37.8675 32.377ZM69.6833 36.1566C69.6833 40.028 66.5334 43.1778 62.6616 43.1778L46.0033 43.1933C44.6189 43.1933 43.3145 43.1933 42.1586 43.1877C42.8765 42.4381 43.3995 41.4903 43.3995 40.2947V33.1363C43.3995 29.3407 46.4887 26.2528 50.2859 26.2528L62.6616 26.2593C66.5334 26.2593 69.6833 29.4066 69.6833 33.2754V36.1566Z" fill="#D5651C"/>
<path d="M54.5758 29.8208H49.2624C49.0624 29.8208 48.9004 29.9828 48.9004 30.1828V38.9995C48.9004 39.1995 49.0624 39.3615 49.2624 39.3615H50.4207C50.6206 39.3615 50.7827 39.1995 50.7827 38.9995V35.844H53.8227C54.0226 35.844 54.1847 35.6819 54.1847 35.482V34.3236C54.1847 34.1237 54.0226 33.9617 53.8227 33.9617H50.7827V31.7031H54.5758C54.7757 31.7031 54.9377 31.5411 54.9377 31.3411V30.1828C54.9377 29.9828 54.7757 29.8208 54.5758 29.8208Z" fill="#D5651C"/>
<path d="M57.9812 33.4624H56.8229C56.623 33.4624 56.4609 33.6244 56.4609 33.8244V39.0596C56.4609 39.2595 56.623 39.4216 56.8229 39.4216H57.9812C58.1812 39.4216 58.3432 39.2595 58.3432 39.0596V33.8244C58.3432 33.6246 58.1812 33.4624 57.9812 33.4624Z" fill="#D5651C"/>
<path d="M57.4023 30.2051C56.8036 30.2051 56.3164 30.6922 56.3164 31.291C56.3164 31.8899 56.8036 32.3769 57.4023 32.3769C58.001 32.3769 58.488 31.8899 58.488 31.291C58.488 30.6922 58.001 30.2051 57.4023 30.2051Z" fill="#D5651C"/>
</svg>
