<svg width="80" height="67" viewBox="0 0 80 67" fill="none" xmlns="http://www.w3.org/2000/svg">
<rect width="67" height="67" rx="8" fill="#FBF0E9"/>
<path d="M79.1039 31.0334L38.485 10.7781C37.6851 10.3797 36.7136 10.7044 36.3147 11.5042L27.6491 28.8816C27.4575 29.2656 27.4265 29.7101 27.5626 30.117C27.6988 30.5241 27.9909 30.8603 28.3752 31.0518L40.5029 37.0992L39.4269 39.2571C39.0282 40.0569 39.3532 41.0284 40.153 41.4273L40.5353 41.6181L38.4457 45.3395H26.1245C24.9786 43.1233 22.6672 41.6072 20 41.6072V55.3913C22.6055 55.3913 24.8728 53.9451 26.0443 51.8119H40.3402C41.5103 51.8119 42.5891 51.1806 43.162 50.1604L46.335 44.5102L46.8866 44.7852C47.6862 45.1839 48.6581 44.8588 49.0569 44.0592L50.1329 41.9014L59.1942 46.4202C59.7168 46.6809 60.3393 46.6398 60.823 46.3123L63.3238 44.6207L67.7891 46.8473C68.0157 46.9605 68.2629 47.0175 68.5112 47.0175C68.6842 47.0175 68.8575 46.9894 69.0245 46.9336C69.4316 46.7978 69.7678 46.5053 69.9593 46.1214L74.5308 36.9537L79.2715 33.8333C79.755 33.515 80.0316 32.9627 79.997 32.385C79.9624 31.807 79.6217 31.2918 79.1039 31.0334Z" fill="#D5651C"/>
</svg>
