<svg width="38" height="37" viewBox="0 0 38 37" fill="none" xmlns="http://www.w3.org/2000/svg">
<path d="M0.5 18.5906C0.5 9.03495 8.24637 1.28857 17.802 1.28857H19.4897C29.0453 1.28857 36.7917 9.03495 36.7917 18.5906C36.7917 28.1462 29.0453 35.8926 19.4897 35.8926H17.802C8.24637 35.8926 0.5 28.1462 0.5 18.5906Z" stroke="white"/>
<path d="M18.5 12.139C20.5042 12.139 20.7411 12.1475 21.532 12.1818C22.2628 12.2161 22.6597 12.3388 22.9252 12.4416C23.2735 12.5758 23.5247 12.7385 23.7874 13.0012C24.0501 13.2638 24.2128 13.5151 24.347 13.8634C24.4498 14.1289 24.5725 14.5257 24.6068 15.2566C24.641 16.0474 24.6496 16.2844 24.6496 18.2886C24.6496 20.2899 24.641 20.5269 24.6068 21.3205C24.5725 22.0514 24.4498 22.4483 24.347 22.7109C24.2128 23.0621 24.0501 23.3133 23.7874 23.5731C23.5247 23.8358 23.2735 23.9985 22.9252 24.1355C22.6597 24.2383 22.2628 24.3611 21.532 24.3925C20.7411 24.4296 20.5042 24.4382 18.5 24.4382C16.4987 24.4382 16.2589 24.4296 15.468 24.3925C14.7372 24.3611 14.3403 24.2383 14.0777 24.1355C13.7265 23.9985 13.4753 23.8358 13.2155 23.5731C12.9528 23.3133 12.7901 23.0621 12.653 22.7109C12.5502 22.4483 12.4275 22.0514 12.3961 21.3205C12.359 20.5269 12.3504 20.2899 12.3504 18.2886C12.3504 16.2844 12.359 16.0474 12.3961 15.2566C12.4275 14.5257 12.5502 14.1289 12.653 13.8634C12.7901 13.5151 12.9528 13.2638 13.2126 13.0012C13.4753 12.7385 13.7265 12.5758 14.0777 12.4416C14.3403 12.3388 14.7372 12.2161 15.468 12.1818C16.2589 12.1475 16.4987 12.139 18.5 12.139ZM18.5 10.7886C16.4644 10.7886 16.2075 10.7971 15.4081 10.8314C14.6087 10.8685 14.0634 10.997 13.5866 11.1826C13.0927 11.3738 12.6759 11.6279 12.259 12.0476C11.8422 12.4644 11.5853 12.8813 11.394 13.3752C11.2084 13.852 11.0799 14.3973 11.0457 15.1966C11.0086 15.996 11 16.2501 11 18.2886C11 20.3242 11.0086 20.5811 11.0457 21.3805C11.0799 22.1799 11.2084 22.7252 11.394 23.202C11.5853 23.6959 11.8422 24.1127 12.259 24.5295C12.6759 24.9464 13.0927 25.2033 13.5866 25.3946C14.0634 25.5802 14.6087 25.7086 15.4081 25.7429C16.2075 25.78 16.4644 25.7886 18.5 25.7886C20.5384 25.7886 20.7925 25.78 21.5919 25.7429C22.3913 25.7086 22.9366 25.5802 23.4134 25.3946C23.9073 25.2033 24.3241 24.9464 24.741 24.5295C25.1578 24.1127 25.4147 23.6959 25.606 23.202C25.7916 22.7252 25.9201 22.1799 25.9572 21.3805C25.9914 20.5811 26 20.3242 26 18.2886C26 16.2501 25.9914 15.996 25.9572 15.1966C25.9201 14.3973 25.7916 13.852 25.606 13.3752C25.4147 12.8813 25.1578 12.4644 24.741 12.0476C24.3241 11.6279 23.9073 11.3738 23.4134 11.1826C22.9366 10.997 22.3913 10.8685 21.5919 10.8314C20.7925 10.7971 20.5384 10.7886 18.5 10.7886Z" fill="white"/>
<path d="M18.4998 14.437C16.3728 14.437 14.6484 16.1614 14.6484 18.2884C14.6484 20.4153 16.3728 22.1397 18.4998 22.1397C20.6267 22.1397 22.3511 20.4153 22.3511 18.2884C22.3511 16.1614 20.6267 14.437 18.4998 14.437ZM18.4998 20.7893C17.118 20.7893 15.9988 19.6702 15.9988 18.2884C15.9988 16.9066 17.118 15.7874 18.4998 15.7874C19.8816 15.7874 21.0007 16.9066 21.0007 18.2884C21.0007 19.6702 19.8816 20.7893 18.4998 20.7893Z" fill="white"/>
<path d="M23.405 14.2826C23.405 14.7822 23.0024 15.1848 22.5057 15.1848C22.0061 15.1848 21.6035 14.7822 21.6035 14.2826C21.6035 13.7859 22.0061 13.3833 22.5057 13.3833C23.0024 13.3833 23.405 13.7859 23.405 14.2826Z" fill="white"/>
</svg>
