<svg width="69" height="47" viewBox="0 0 69 47" fill="none" xmlns="http://www.w3.org/2000/svg">
<path d="M45.6202 46.9034H0V0H45.6202V16.0478H43.5054V2.17434H2.11264V44.7291H43.5054V30.7508H45.6202V46.9034Z" fill="white"/>
<path d="M9.31934 18.635H11.4386V22.7877L14.4713 18.635H17.014L13.5314 23.0338L17.2911 28.1665H14.6043L11.4386 23.631V28.1665H9.31934V18.635Z" fill="white"/>
<path d="M22.8177 26.2019C24.5269 26.2019 25.4136 24.9597 25.4136 23.4007C25.4136 21.7095 24.2697 20.5995 22.8177 20.5995C21.3279 20.5995 20.2239 21.7095 20.2239 23.4007C20.2239 24.9848 21.3789 26.2019 22.8177 26.2019ZM22.8177 18.6189C25.5555 18.6189 27.5995 20.4537 27.5995 23.4007C27.5995 26.2019 25.5555 28.1825 22.8177 28.1825C20.082 28.1825 18.0381 26.3454 18.0381 23.4007C18.0381 20.7181 19.9535 18.6189 22.8177 18.6189Z" fill="white"/>
<path d="M36.511 28.166L32.115 22.4474V28.166H30.1265V18.6366H31.8224L36.2206 24.3802L36.2162 18.6366H38.2025L38.2069 28.166H36.511Z" fill="white"/>
<path d="M40.7568 18.635H48.4382V20.6771H45.6561V28.1665H43.5368V20.6771H40.7568V18.635Z" fill="white"/>
<path d="M58.717 24.0661C58.717 26.9788 56.917 28.164 54.9307 28.164C52.5476 28.164 50.8916 26.7623 50.8916 23.9704V18.6394H53.0109V23.5077C53.0109 24.9914 53.4476 26.1219 54.9307 26.1219C56.2142 26.1219 56.5977 25.1555 56.5977 23.6308V18.6394H58.717V24.0661Z" fill="white"/>
<path d="M63.384 20.7089V22.8194H64.151C64.9601 22.8194 65.5942 22.5185 65.5942 21.7163C65.5942 21.1852 65.3326 20.7066 64.3128 20.7066C63.9936 20.7066 63.8207 20.6952 63.384 20.7089ZM61.2646 28.164V18.6394C61.7812 18.6394 64.151 18.6394 64.417 18.6394C66.9464 18.6394 67.8465 19.9317 67.8465 21.6889C67.8465 23.4575 66.7868 24.18 66.2836 24.4399L68.9637 28.164H66.3944L64.1643 24.8615H63.384V28.164H61.2646Z" fill="white"/>
</svg>
