<svg width="70" height="70" viewBox="0 0 70 70" fill="none" xmlns="http://www.w3.org/2000/svg">
<g style="mix-blend-mode:multiply" opacity="0.54">
<path d="M42.5446 32.4547C42.1917 32.0374 36.0388 24.8779 35.5846 24.3286C37.9046 26.1699 40.5959 28.9042 42.8607 31.4175C43.7911 28.0396 43.8355 24.4789 42.9896 21.0788C42.0618 22.8328 40.5479 24.2056 38.7117 24.9577C36.3426 21.5115 37.0024 16.8316 39.6323 13.9102C37.9135 11.579 35.7167 9.64164 33.1888 8.22784C30.6609 6.81403 27.8603 5.95633 24.9742 5.7121C22.0882 5.46787 19.1832 5.84275 16.4537 6.81166C13.7242 7.78056 11.233 9.32116 9.14691 11.3304C7.06077 13.3396 5.42773 15.7712 4.35703 18.4624C3.28633 21.1536 2.80265 24.0424 2.93836 26.9356C3.07406 29.8288 3.82601 32.6597 5.14391 35.2388C6.46181 37.818 8.31528 40.086 10.5803 41.8912C21.631 50.7108 38.0581 45.8008 42.5446 32.4547ZM24.3529 9.50036C30.3616 9.62311 35.112 15.868 33.6206 21.668C27.4954 21.5054 22.8984 15.2451 24.3529 9.50036ZM19.1882 26.2957C23.239 22.2634 30.6316 23.1287 33.6329 27.9805C29.5238 32.0404 22.1711 31.1075 19.1882 26.2957ZM24.669 37.6747C27.6549 32.1785 35.6982 30.7577 40.3627 34.9128C37.3216 40.4734 29.3059 41.7899 24.669 37.6747Z" fill="#F7941E"/>
</g>
<g style="mix-blend-mode:multiply" opacity="0.54">
<path d="M47.6356 55.7469C48.617 52.995 48.9947 50.0641 48.7429 47.1533C48.4912 44.2425 47.616 41.4199 46.1767 38.8773C44.7374 36.3347 42.7678 34.1317 40.4017 32.4177C38.0355 30.7038 35.3282 29.5192 32.4636 28.9443C29.5606 30.9421 25.6448 31.0127 22.6037 29.4261C19.2791 30.4301 16.267 32.2686 13.8542 34.7665C11.4415 37.2644 9.70851 40.3385 8.82039 43.6959C7.93226 47.0533 7.91858 50.5821 8.78064 53.9463C9.6427 57.3105 11.3518 60.3979 13.7451 62.9144C16.1384 65.4309 19.1362 67.2928 22.4529 68.3225C25.7696 69.3522 29.2947 69.5156 32.6924 68.797C36.0901 68.0784 39.2472 66.5019 41.863 64.2175C44.4788 61.9331 46.4661 59.017 47.6356 55.7469ZM45.7943 46.0803C42.3512 51.1376 34.4399 51.6194 30.4321 47.2219C33.8875 42.1799 41.7405 41.6674 45.8036 46.0803H45.7943ZM40.3534 34.9162C37.3123 40.4737 29.3059 41.7902 24.6597 37.678C27.6549 32.1788 35.6981 30.758 40.3626 34.9162H40.3534Z" fill="#FBB040"/>
</g>
<g style="mix-blend-mode:multiply" opacity="0.54">
<path d="M37.1372 50.2106C34.6023 50.1387 32.1995 49.0637 30.4565 47.2217C32.6384 44.0301 36.5787 42.6584 40.2121 43.1954C40.8243 40.4867 40.8734 37.6812 40.3564 34.9527C37.2876 40.4765 29.3088 41.7807 24.6842 37.6747C27.6609 32.1908 35.6704 30.7669 40.3349 34.8852C40.2889 34.6489 40.2428 34.4126 40.1907 34.1733C39.1538 29.6171 36.5804 25.5566 32.9029 22.6738C29.2255 19.7911 24.6679 18.2618 19.9959 18.3429C15.324 18.424 10.8222 20.1105 7.24698 23.1191C3.67174 26.1276 1.24083 30.275 0.362645 34.8644C-0.515544 39.4538 0.212491 44.2057 2.42444 48.3216C4.6364 52.4376 8.1975 55.6669 12.5095 57.4671C16.8215 59.2673 21.6217 59.5286 26.1036 58.2072C30.5856 56.8858 34.4762 54.0621 37.1219 50.2106H37.1372ZM19.188 26.2957C23.2388 22.2634 30.6315 23.1288 33.6327 27.9805C29.5236 32.0405 22.1709 31.1076 19.188 26.2957Z" fill="#EFAC5E"/>
</g>
<g style="mix-blend-mode:multiply" opacity="0.54">
<path d="M24.6691 37.6748C27.655 32.1786 35.6982 30.7578 40.3627 34.9129C38.2637 38.7489 33.7925 40.5625 29.7018 39.9641C32.4506 40.7081 35.3249 40.8667 38.1388 40.4295C40.9527 39.9923 43.6435 38.9692 46.0369 37.4262C43.6463 33.1514 40.955 30.8468 35.6031 24.3349C39.8625 27.7289 45.371 34.0905 47.2061 36.6253C50.7323 33.9868 53.3069 30.275 54.5429 26.0478C55.7788 21.8207 55.6094 17.3066 54.0599 13.184C52.5105 9.06145 49.6649 5.55316 45.9507 3.18647C42.2365 0.819771 37.8545 -0.277454 33.4633 0.0597104C29.0721 0.396875 24.909 2.15021 21.5997 5.05618C18.2903 7.96216 16.0136 11.8638 15.1117 16.1745C14.2098 20.4853 14.7315 24.9724 16.5983 28.9613C18.4651 32.9502 21.5761 36.2254 25.4639 38.2947C25.1878 38.1027 24.9225 37.8958 24.6691 37.6748ZM51.395 18.9737C53.9328 24.0802 50.7812 30.6811 45.3556 31.9884C42.8116 26.9065 45.9663 20.2749 51.395 18.9737ZM42.6858 11.7529C45.7546 16.1904 43.7568 22.9447 38.6964 24.9486C35.6031 20.4161 37.7236 13.7262 42.6858 11.7529ZM24.353 9.50047C30.3616 9.62322 35.1121 15.8682 33.6207 21.6681C27.4954 21.5055 22.8984 15.2452 24.353 9.50047ZM19.1883 26.2958C23.239 22.2635 30.6317 23.1289 33.6329 27.9806C29.5239 32.0406 22.1711 31.1077 19.1883 26.2958Z" fill="#FFDE17"/>
</g>
<g style="mix-blend-mode:multiply" opacity="0.54">
<path d="M62.6573 13.3057C60.7863 10.9579 58.4188 9.05346 55.7246 7.72905C53.0305 6.40465 50.0765 5.69314 47.0748 5.64562C44.0731 5.59809 41.0981 6.21572 38.3633 7.45418C35.6286 8.69263 33.202 10.5212 31.2576 12.8086C33.3751 15.1746 34.4399 18.4889 33.6206 21.6742C31.3769 21.5956 29.2333 20.726 27.569 19.2192C27.0504 20.6948 26.7024 22.2248 26.5317 23.7794C29.3611 24.0311 32.0831 25.4703 33.6329 27.9775C32.7447 28.8353 31.6916 29.5039 30.5375 29.9427C29.3833 30.3816 28.1521 30.5816 26.9184 30.5307C27.2002 31.7552 27.5947 32.951 28.0968 34.1027C31.8162 31.8227 36.9778 31.8994 40.3719 34.916C38.6718 38.0216 35.4189 39.8014 32.0678 40.05C33.2884 41.3332 34.6732 42.4497 36.1861 43.3704C39.5617 42.5633 43.3731 43.4349 45.8128 46.0801C45.7606 46.1538 45.7054 46.2244 45.6532 46.295C46.741 46.3548 47.8319 46.3271 48.9153 46.2121C47.9609 36.9567 41.7252 31.7889 35.5938 24.3287C39.8993 27.7688 45.509 34.2654 47.2643 36.7265C49.2546 39.4339 50.6916 42.507 51.4931 45.7702C65.9193 42.3362 71.9525 24.964 62.6573 13.3057ZM38.7209 24.967C35.5999 20.4253 37.7327 13.7353 42.7103 11.7713C45.7668 16.1904 43.7567 22.9447 38.7117 24.9578L38.7209 24.967ZM45.3648 31.9976C42.8207 26.9157 45.9785 20.2841 51.4041 18.9829C53.9328 24.0802 50.7811 30.6749 45.3555 31.9884L45.3648 31.9976ZM52.696 43.6251C49.9035 37.8957 53.4847 30.3865 59.7082 28.9656C62.51 34.7472 58.8857 42.2104 52.696 43.6251Z" fill="#F9ED32"/>
</g>
<g style="mix-blend-mode:multiply" opacity="0.54">
<path d="M54.1812 18.8697C50.7309 18.0786 47.1334 18.2056 43.7474 19.238C43.3934 20.5102 42.7559 21.6858 41.8826 22.6765C41.0094 23.6672 39.9232 24.4472 38.7054 24.9582C38.1676 24.17 37.77 23.2948 37.5301 22.3712C35.7639 23.6776 34.2217 25.2623 32.9638 27.0634C33.2054 27.3548 33.4269 27.6624 33.6266 27.984C32.9937 28.6028 32.2691 29.1204 31.4785 29.5184C30.8954 30.6824 30.4268 31.9003 30.0791 33.1549C33.5008 31.9273 37.5424 32.4061 40.3595 34.9163C38.2114 38.8628 33.5315 40.6672 29.3457 39.9092C29.4816 42.2118 30.0099 44.4744 30.9077 46.5991C34.5565 42.1494 41.9031 41.8579 45.8004 46.0805C42.7071 50.6223 36.0233 51.4692 31.7823 48.4097C33.2516 51.1245 35.3213 53.4681 37.8335 55.2619C40.3458 57.0557 43.2344 58.2523 46.2792 58.7606C50.689 50.6253 50.1274 41.2901 42.1425 31.9887C39.6291 29.0611 35.9067 24.7249 35.5814 24.3168C39.8992 27.7692 45.5089 34.2657 47.2642 36.7269C53.2974 45.1967 52.788 52.9637 50.2685 59.0368C55.2147 58.8881 59.9372 56.9416 63.5515 53.5618C67.1659 50.1819 69.4244 45.6005 69.9042 40.6754C70.3839 35.7503 69.052 30.8192 66.1579 26.8053C63.2637 22.7915 59.0057 19.9702 54.1812 18.8697ZM45.3555 31.9887C42.8114 26.9068 45.9692 20.2752 51.3948 18.9741C53.9327 24.0805 50.781 30.6753 45.3555 31.9887ZM52.6959 43.6255C49.9034 37.8961 53.4846 30.3868 59.7081 28.966C62.5099 34.7475 58.8856 42.2108 52.6959 43.6255Z" fill="#FBB040"/>
</g>
<g style="mix-blend-mode:multiply" opacity="0.54">
<path d="M46.8101 57.7231C52.9476 44.6471 44.5883 34.8332 42.1456 31.9884L39.3039 28.6772C25.3563 30.2116 17.1136 45.0921 23.1959 57.7231C24.3697 60.1635 26.0204 62.3441 28.0506 64.1361C30.0809 65.9282 32.4495 67.2953 35.0168 68.1569C37.5877 67.309 39.9591 65.9467 41.9866 64.153C44.0141 62.3592 45.6552 60.1715 46.8101 57.7231ZM24.6689 37.6749C27.6548 32.1787 35.6981 30.7579 40.3626 34.913C37.3215 40.4736 29.3058 41.7901 24.6689 37.6749ZM45.8035 46.0802C42.3604 51.1375 34.4491 51.6193 30.4413 47.2218C33.8875 42.1798 41.7405 41.6673 45.8035 46.0802Z" fill="#FBB040"/>
</g>
<g style="mix-blend-mode:multiply" opacity="0.54">
<path d="M59.1403 38.7396C58.4569 39.951 57.5325 41.0095 56.4241 41.8498C55.3157 42.6901 54.0469 43.2943 52.6959 43.6251C50.9682 40.0745 51.6832 35.8458 53.9572 32.8016C52.4659 31.6472 50.8205 30.7072 49.0687 30.009C48.0141 30.9663 46.7381 31.6465 45.3554 31.9883C44.8611 30.9833 44.5711 29.8902 44.5023 28.7723C43.0805 28.5617 41.6403 28.503 40.2061 28.5974C43.2503 31.7029 46.0981 35.1001 47.2642 36.7265C57.6428 51.297 48.6237 63.8022 43.4528 69.1511C46.8423 68.8255 50.0958 67.6545 52.9154 65.7454C55.735 63.8364 58.0304 61.2504 59.5914 58.2242C61.1525 55.198 61.9291 51.8285 61.8503 48.4244C61.7715 45.0202 60.8397 41.6903 59.1403 38.7396Z" fill="#FBB040"/>
</g>
</svg>
