<svg width="37" height="37" viewBox="0 0 37 37" fill="none" xmlns="http://www.w3.org/2000/svg">
<path d="M0.5 18.7886C0.5 9.12359 8.33502 1.28857 18 1.28857H19C28.665 1.28857 36.5 9.12359 36.5 18.7886C36.5 28.4536 28.665 36.2886 19 36.2886H18C8.33502 36.2886 0.5 28.4536 0.5 18.7886Z" stroke="white"/>
<path d="M17.9246 18.5606C20.3438 18.5606 22.3121 16.5953 22.3121 14.1761C22.3121 11.7568 20.3438 9.78857 17.9246 9.78857C15.5053 9.78857 13.5371 11.7568 13.5371 14.1761C13.5371 16.5953 15.5053 18.5606 17.9246 18.5606ZM17.9246 12.3601C18.9263 12.3601 19.7405 13.1744 19.7405 14.1761C19.7405 15.1777 18.9263 15.992 17.9246 15.992C16.9229 15.992 16.1087 15.1777 16.1087 14.1761C16.1087 13.1744 16.9229 12.3601 17.9246 12.3601Z" fill="white"/>
<path d="M19.6993 22.1397C20.5926 21.9376 21.4537 21.5832 22.2474 21.0853C22.8479 20.7074 23.0295 19.9137 22.6516 19.3133C22.2709 18.7129 21.4801 18.5313 20.8767 18.9091C19.0813 20.0396 16.7675 20.0396 14.9692 18.9091C14.3687 18.5313 13.575 18.7129 13.1972 19.3133C12.8194 19.9137 13.0009 20.7074 13.6014 21.0853C14.3951 21.5832 15.2562 21.9376 16.1495 22.1397L13.6951 24.5941C13.1942 25.0949 13.1942 25.9091 13.6951 26.4129C13.947 26.6619 14.275 26.7878 14.606 26.7878C14.934 26.7878 15.262 26.6619 15.5139 26.4129L17.9244 24.0024L20.3349 26.4129C20.8357 26.9137 21.65 26.9137 22.1537 26.4129C22.6546 25.9091 22.6546 25.0949 22.1537 24.5941L19.6993 22.1397Z" fill="white"/>
</svg>
