<svg width="37" height="37" viewBox="0 0 37 37" fill="none" xmlns="http://www.w3.org/2000/svg">
<path d="M0.5 18.7886C0.5 9.12359 8.33502 1.28857 18 1.28857H19C28.665 1.28857 36.5 9.12359 36.5 18.7886C36.5 28.4536 28.665 36.2886 19 36.2886H18C8.33502 36.2886 0.5 28.4536 0.5 18.7886Z" stroke="white"/>
<path fill-rule="evenodd" clip-rule="evenodd" d="M17.3181 24.7479H18.3344C18.3344 24.7479 18.6413 24.7116 18.7972 24.5378C18.9406 24.377 18.9381 24.0787 18.9381 24.0787C18.9381 24.0787 18.918 22.6729 19.5494 22.4654C20.1732 22.2604 20.9757 23.8245 21.8234 24.4237C22.4649 24.8802 22.9529 24.779 22.9529 24.779L25.2244 24.7479C25.2244 24.7479 26.4117 24.6727 25.8483 23.7078C25.803 23.63 25.5212 22.9971 24.1603 21.695C22.7366 20.3332 22.9277 20.5537 24.6433 18.1959C25.6873 16.7616 26.1049 15.8849 25.974 15.5087C25.8483 15.1534 25.081 15.2468 25.081 15.2468L22.5252 15.2623C22.5252 15.2623 22.3341 15.2364 22.1957 15.322C22.0574 15.4076 21.9693 15.6047 21.9693 15.6047C21.9693 15.6047 21.5643 16.7175 21.026 17.6616C19.8865 19.6537 19.4311 19.76 19.245 19.6355C18.8123 19.3476 18.9205 18.4761 18.9205 17.8587C18.9205 15.9264 19.2047 15.1223 18.3671 14.9122C18.0904 14.8447 17.8841 14.798 17.1747 14.7903C16.2616 14.7825 15.4918 14.7929 15.0541 15.0159C14.7623 15.1612 14.5384 15.488 14.6743 15.5087C14.8428 15.5295 15.2277 15.6151 15.4289 15.8978C15.6905 16.2661 15.683 17.091 15.683 17.091C15.683 17.091 15.8339 19.3657 15.3308 19.6485C14.9862 19.8404 14.5133 19.4462 13.4995 17.6383C12.9788 16.7123 12.5864 15.6877 12.5864 15.6877C12.5864 15.6877 12.5109 15.4958 12.3751 15.3946C12.2116 15.2701 11.9827 15.2312 11.9827 15.2312L9.55265 15.2468C9.55265 15.2468 9.19042 15.2571 9.05458 15.4206C8.93635 15.5658 9.04703 15.8667 9.04703 15.8667C9.04703 15.8667 10.9463 20.4551 13.0996 22.7662C15.0768 24.8854 17.3181 24.7479 17.3181 24.7479Z" fill="white"/>
</svg>
